<?xml version="1.0" encoding="iso-8859-1"?>
<!-- Generator: Adobe Illustrator 19.0.0, SVG Export Plug-In . SVG Version: 6.00 Build 0)  -->
<svg xmlns="http://www.w3.org/2000/svg" xmlns:xlink="http://www.w3.org/1999/xlink" version="1.1" id="Layer_1" x="0px" y="0px" viewBox="0 0 511.998 511.998" style="enable-background:new 0 0 511.998 511.998;" xml:space="preserve">
<path style="fill:#70727F;" d="M260.935,246.818l-35.552-55.172c-8.136,8.01-17.763,14.094-28.541,18.009l24.19,37.163H260.935z"/>
<path style="fill:#61626D;" d="M196.842,209.655l24.19,37.163h19.937l-28.998-44.551  C207.105,205.325,202.032,207.77,196.842,209.655z"/>
<path style="fill:#CCCECC;" d="M104.406,327.514c-19.03,39.124-33.193,86.582-33.193,141.237c0,18.64,15.11,33.748,33.748,33.748  s33.748-15.109,33.748-33.748c0-48.97,14.46-96.413,43.001-141.237H104.406z"/>
<path style="fill:#ACADAC;" d="M96.215,468.751c0-54.654,14.163-102.112,33.193-141.237h-25.002  c-19.03,39.124-33.193,86.582-33.193,141.237c0,23.811,24.091,40.193,46.249,31.347C105.013,495.13,96.215,482.972,96.215,468.751z"/>
<path style="fill:#87A1FF;" d="M204.614,328.514c-0.398,25.164,3.537,61.244,24.704,89.668c3.312,4.447,8.397,6.797,13.547,6.797  c13.781-0.008,21.826-15.803,13.521-26.953c-15.656-21.023-18.4-49.536-17.997-69.513H204.614z"/>
<path style="fill:#688AEA;" d="M245.19,412.182c-19.537-26.237-24.392-58.99-24.71-83.668h-15.866  c-0.398,25.164,3.537,61.244,24.704,89.668c6.497,8.727,19.596,9.201,26.628,0.538C251.799,418.029,247.899,415.82,245.19,412.182z"/>
<path style="fill:#CCCECC;" d="M385.396,272.919h-24.852v29.492h24.852c8.146,0,14.747-6.602,14.747-14.745  C400.143,279.521,393.541,272.919,385.396,272.919z"/>
<path style="fill:#ACADAC;" d="M385.396,287.665h-24.852v14.746h24.852c11.345,0,18.442-12.306,12.759-22.119  C395.604,284.695,390.852,287.665,385.396,287.665z"/>
<rect x="39.688" y="272.919" style="fill:#70727F;" width="38.093" height="29.492"/>
<rect x="39.688" y="287.66" style="fill:#585A66;" width="38.093" height="14.746"/>
<path style="fill:#CCCECC;" d="M275.514,319.11h37.722c-1.453-3.785-1.087-1.244-1.087-57.094c0-2.086,0.408-4.072,1.126-5.902  h-37.802c0.719,1.83,1.127,3.816,1.127,5.902C276.6,317.803,276.97,315.317,275.514,319.11z"/>
<path style="fill:#ACADAC;" d="M312.147,287.612h-35.548c0,28.272,0.32,27.837-1.086,31.498h37.722  C311.832,315.458,312.147,315.96,312.147,287.612z"/>
<path style="fill:#61626D;" d="M27.442,257.683c-8.145,0-14.747,6.602-14.747,14.747c0,4.097,0,33.749,0,37.847  c0,8.144,6.602,14.745,14.747,14.745c8.144,0,14.745-6.602,14.745-14.745c0-12.593,0-25.243,0-37.847  C42.187,264.285,35.585,257.683,27.442,257.683z"/>
<path style="fill:#3D3F4C;" d="M27.441,310.276c0-12.593,0-25.243,0-37.847c0-5.455,2.97-10.207,7.373-12.758  c-9.818-5.691-22.119,1.426-22.119,12.758c0,4.097,0,33.749,0,37.847c0,8.144,6.602,14.745,14.747,14.745  c2.689,0,5.201-0.731,7.372-1.989C30.411,320.482,27.441,315.731,27.441,310.276z"/>
<path style="fill:#ACADAC;" d="M68.816,122.404l35.443,56.172c23.253,36.851,71.978,47.872,108.829,24.619  c36.849-23.254,47.872-71.978,24.621-108.825l-35.443-56.172L68.816,122.404z"/>
<path style="fill:#CCCECC;" d="M202.266,38.198L129.298,84.24c13.733,49.34,48.985,89.711,95.017,110.362  c27.619-25.285,34.08-67.45,13.396-100.232L202.266,38.198z"/>
<circle style="fill:#74767F;" cx="109.076" cy="38.373" r="17.911"/>
<path style="fill:#565966;" d="M118.052,22.873c-16.097-9.302-34.085,9.267-24.12,25.055c5.15,8.165,15.804,10.725,24.09,5.937  C106.218,47.042,105.994,29.875,118.052,22.873z"/>
<path style="fill:#61626D;" d="M276.6,313.314c0,8.946-7.253,16.2-16.198,16.2H93.981c-8.946,0-16.198-7.254-16.198-16.2v-51.299  c0-8.946,7.252-16.198,16.198-16.198h166.419c8.946,0,16.198,7.253,16.198,16.198v51.299H276.6z"/>
<path style="fill:#464856;" d="M260.401,304.822H93.981c-8.946,0-16.198-7.254-16.198-16.2v24.693c0,8.946,7.252,16.2,16.198,16.2  h166.419c8.946,0,16.198-7.254,16.198-16.2v-24.693C276.6,297.567,269.347,304.822,260.401,304.822z"/>
<path style="fill:#74767F;" d="M183.545,11.106c-13.549,8.55-116.537,73.535-132.027,83.309  c-7.882,4.975-10.239,15.394-5.264,23.277c4.973,7.882,15.392,10.239,23.275,5.264c36.627-23.11,129.862-81.944,132.025-83.309  c7.883-4.973,10.239-15.393,5.266-23.277C201.847,8.491,191.426,6.133,183.545,11.106z"/>
<path style="fill:#565966;" d="M200.927,10.733c-0.039,5.557-2.807,10.981-7.856,14.166c-2.473,1.561-95.762,60.427-132.025,83.309  c-5.463,3.447-12.142,3.368-17.384,0.374c-0.092,13.309,14.6,21.484,25.867,14.374c36.627-23.11,129.862-81.944,132.025-83.309  C212.333,32.846,211.928,17.011,200.927,10.733z"/>
<path style="fill:#74767F;" d="M361.545,313.314c0,8.946-7.253,16.2-16.198,16.2h-17.999c-8.947,0-16.199-7.254-16.199-16.2v-51.299  c0-8.946,7.253-16.198,16.199-16.198h17.999c8.946,0,16.198,7.253,16.198,16.198V313.314z"/>
<path style="fill:#565966;" d="M336.346,313.314v-51.299c0-7.708,5.389-14.145,12.601-15.783c-1.16-0.263-2.361-0.415-3.6-0.415  h-17.999c-8.947,0-16.199,7.253-16.199,16.198v51.298c0,8.946,7.253,16.2,16.199,16.2h17.999c1.238,0,2.44-0.152,3.6-0.415  C341.734,327.46,336.346,321.022,336.346,313.314z"/>
<rect x="311.15" y="272.919" style="fill:#74767F;" width="50.393" height="29.492"/>
<rect x="311.15" y="272.919" style="fill:#565966;" width="25.202" height="29.492"/>
<path d="M387.279,265.418h-17.351v-3.402c0-13.067-10.632-23.699-23.699-23.699h-17.999c-8.097,0-15.254,4.083-19.531,10.296  h-28.884c-3.58-5.2-9.18-8.904-15.657-9.974l-28.45-45.087c24.652-28.03,29.135-70.055,8.23-103.184l-9.835-15.587  c-2.21-3.504-6.844-4.553-10.346-2.341c-3.503,2.21-4.552,6.842-2.341,10.346l9.835,15.587  c24.177,38.315,6.892,89.506-35.941,105.176c-30.884,11.259-66.583-0.071-84.823-28.974l-31.441-49.828  c5.198-3.28,115.49-72.875,120.764-76.203l8.669,13.737c2.21,3.503,6.841,4.551,10.346,2.341c3.503-2.21,4.552-6.842,2.341-10.346  l-9.454-14.982c6.079-7.874,6.945-19.035,1.336-27.927C208.553,4.249,200.842,0,192.416,0c-4.598,0-9.091,1.301-12.991,3.763  l-46.974,29.641c-2.92-17.185-22.401-25.771-37.05-16.526C80.79,26.102,80.083,47.347,94.376,57.43L47.397,87.072  c-22.803,14.392-8.468,50.223,18.177,44.436l32.225,51.07c20.913,33.144,60.776,47.196,96.692,37.006l11.821,18.732H93.864  c-13.067,0-23.699,10.632-23.699,23.699v3.402H46.821c-1.609-10.696-10.86-18.923-21.997-18.923  c-12.268,0-22.248,9.98-22.248,22.248v37.847c0,12.267,9.98,22.246,22.248,22.246c11.138,0,20.387-8.228,21.997-18.923h23.345v3.402  c0,12.626,9.924,22.976,22.38,23.663c-19.211,43.066-28.951,88.01-28.951,133.774c0,22.745,18.504,41.249,41.249,41.249  s41.249-18.504,41.249-41.249c0-25.691,4.165-51.253,12.379-75.979c1.307-3.931-0.821-8.177-4.753-9.482  c-3.927-1.308-8.177,0.821-9.482,4.753c-8.723,26.253-13.145,53.407-13.145,80.708c0,14.473-11.775,26.248-26.248,26.248  s-26.248-11.775-26.248-26.248c0-45.789,10.232-90.758,30.421-133.736h59.247c-5.608,9.694-10.614,19.548-14.942,29.423  c-1.663,3.794,0.064,8.218,3.858,9.881c3.79,1.663,8.218-0.064,9.881-3.858c5.227-11.924,11.514-23.829,18.693-35.444h11.258  c0.504,25.72,5.847,59.353,26.173,86.648c7.945,10.668,23.202,13.119,34.106,4.991c10.805-8.043,13.042-23.302,4.992-34.106  c-12.572-16.881-16.087-39.444-16.505-57.532h14.505c8.144,0,15.34-4.13,19.607-10.405h28.73  c4.268,6.274,11.465,10.405,19.608,10.405h17.999c13.067,0,23.699-10.633,23.699-23.701v-3.402h17.351  c12.268,0,22.248-9.98,22.248-22.246C409.527,275.399,399.546,265.418,387.279,265.418z M103.406,29.564  c7.049-4.446,15.985,1.866,14.146,9.996c-1.837,8.113-12.608,10.008-17.069,2.933C97.717,38.111,99.025,32.329,103.406,29.564z   M55.403,99.758c5.974-3.769,126.066-79.547,132.027-83.309c1.502-0.947,3.227-1.448,4.986-1.448c3.246,0,6.215,1.635,7.942,4.371  c2.759,4.372,1.447,10.174-2.925,12.932C54.836,122.283,64.414,117.062,60.421,117.062C51.07,117.062,47.471,104.766,55.403,99.758z   M319.531,280.419h35.396v14.491h-35.396V280.419z M328.229,253.318h17.999c4.796,0,8.698,3.901,8.698,8.698v3.402h-35.395  c0-3.69-0.154-4.564,0.636-6.651C321.457,255.576,324.583,253.318,328.229,253.318z M208.776,214.115  c5.145-2.516,10.696-5.917,15.85-10.012l21.59,34.214H224.05L208.776,214.115z M32.069,306.589c0,3.994-3.25,7.245-7.244,7.245  c-3.995,0-7.246-3.25-7.246-7.245v-37.847c0-3.995,3.251-7.247,7.246-7.247c3.994,0,7.244,3.251,7.244,7.247V306.589z   M47.071,294.911v-14.492h23.095v14.491H47.071V294.911z M250.253,403.508c1.495,2.007,2.119,4.477,1.757,6.954  c-1.211,8.278-11.84,10.896-16.793,4.24c-17.927-24.074-22.714-54.325-23.203-77.688h18.762  C231.219,357.491,235.307,383.438,250.253,403.508z M260.284,322.014c-4.683,0-161.042,0-166.419,0c-4.796,0-8.698-3.902-8.698-8.7  c0-10.828,0-39.968,0-51.299c0-4.796,3.901-8.698,8.698-8.698h126.05c21.208,0,30.515,0,40.37,0c4.897,0,8.698,4.025,8.698,8.698  c0,56.188,0.235,52.162-0.616,54.495C267.088,319.73,263.951,322.014,260.284,322.014z M283.982,263.614h20.547  c0,23.431,0,26.667,0,47.995h-20.547V263.614z M346.23,322.014H328.23c-3.583,0-6.806-2.2-8.11-5.593  c-0.736-1.917-0.589-3.075-0.589-6.509h35.396v3.402C354.927,318.112,351.025,322.014,346.23,322.014z M387.279,294.911h-17.351  v-14.492h17.351c3.995,0,7.247,3.251,7.247,7.246C394.526,291.661,391.275,294.911,387.279,294.911z"/>
<path d="M501.92,280.111h-69.522c-4.143,0-7.501,3.357-7.501,7.501s3.357,7.501,7.501,7.501h69.522c4.143,0,7.501-3.357,7.501-7.501  S506.064,280.111,501.92,280.111z"/>
<path d="M431.378,265.37l63.948-27.272c3.81-1.624,5.581-6.03,3.956-9.842c-1.623-3.809-6.025-5.58-9.842-3.956l-63.948,27.272  c-3.81,1.624-5.581,6.03-3.956,9.842C423.156,265.215,427.557,266.998,431.378,265.37z"/>
<path d="M495.326,337.123l-63.948-27.272c-3.813-1.627-8.218,0.148-9.842,3.956c-1.625,3.811,0.146,8.218,3.956,9.842l63.948,27.272  c0.96,0.41,1.958,0.604,2.938,0.604c2.915,0,5.688-1.71,6.902-4.56C500.908,343.153,499.136,338.747,495.326,337.123z"/>
<g>
</g>
<g>
</g>
<g>
</g>
<g>
</g>
<g>
</g>
<g>
</g>
<g>
</g>
<g>
</g>
<g>
</g>
<g>
</g>
<g>
</g>
<g>
</g>
<g>
</g>
<g>
</g>
<g>
</g>
</svg>
