<svg id="Layer_1" data-name="Layer 1" xmlns="http://www.w3.org/2000/svg" viewBox="0 0 48 48"><defs><style>.cls-1{fill:none;stroke:#000;stroke-linecap:round;stroke-linejoin:round;stroke-width:2px;}</style></defs><title>crane car</title><polyline class="cls-1" points="24 22 6 4 4 6 24 28"/><line class="cls-1" x1="6" y1="9" x2="6" y2="22"/><line class="cls-1" x1="7" y1="22" x2="5" y2="22"/><circle class="cls-1" cx="13" cy="32" r="4"/><circle class="cls-1" cx="34" cy="32" r="4"/><path class="cls-1" d="M30,29V14h6.68A7.32,7.32,0,0,1,44,21.32v7.89A2.79,2.79,0,0,1,41.21,32H39"/><polyline class="cls-1" points="43 22 36 22 36 17 37 17"/><line class="cls-1" x1="18" y1="32" x2="30" y2="32"/><line class="cls-1" x1="19" y1="29" x2="30" y2="29"/><polyline class="cls-1" points="9 32 4 32 4 29 9 29"/><circle cx="34" cy="32" r="1"/><circle cx="13" cy="32" r="1"/><rect class="cls-1" x="24" y="22" width="6" height="7"/><path class="cls-1" d="M6,22v2a2,2,0,0,0,4,0"/><rect class="cls-1" x="-214" y="-350" width="680" height="680"/></svg>