<svg xmlns="http://www.w3.org/2000/svg" viewBox="0 0 88 88"><title>Artboard-28</title><g id="debit"><rect x="16" y="26" width="56" height="3" style="fill:#202021"/><path d="M71,21H17a1,1,0,0,0-1,1v2H72V22A1,1,0,0,0,71,21Z" style="fill:#202021"/><path d="M29,36a5.0018,5.0018,0,0,0-5,5V57.24a11.0371,11.0371,0,0,0,2.72,7.25L29.8,68H59V62.49A11.1275,11.1275,0,0,0,62.95,55H41.05l-.6-.67a9.688,9.688,0,0,0-4.93-3.01L34.24,51H34V41A5.0018,5.0018,0,0,0,29,36Z" style="fill:#202021"/><path d="M61,47a1.9714,1.9714,0,0,0,.4971-.0635c-.037-.0667-.065-.1382-.0981-.207-.0236-.05-.0484-.0974-.07-.1479a3.9821,3.9821,0,0,1-.2215-.6786c-.0107-.0466-.0179-.0935-.0269-.1406a3.647,3.647,0,0,1,0-1.5264c.0089-.0461.0159-.092.0263-.1377a3.9673,3.9673,0,0,1,.2256-.6877c.0192-.0444.0409-.0867.0617-.13.0344-.0722.0639-.1468.1026-.2167A1.9714,1.9714,0,0,0,61,43a2,2,0,0,0,0,4Z" style="fill:#202021"/><path d="M65,47a2,2,0,0,0,0-4,1.9762,1.9762,0,0,0-1.3291.5117,1.9868,1.9868,0,0,0-.0137,2.9649A1.9909,1.9909,0,0,0,65,47Z" style="fill:#202021"/><path d="M16,52a1.0029,1.0029,0,0,0,1,1h5V48H20a1,1,0,0,1,0-2h2V44H20a1,1,0,0,1,0-2h2V41a7,7,0,0,1,14,0v1h4a1,1,0,0,1,0,2H36v2h4a1,1,0,0,1,0,2H36v1.38A11.741,11.741,0,0,1,41.95,53H71a1.0029,1.0029,0,0,0,1-1V31H16ZM61,41a3.9735,3.9735,0,0,1,1.998.5453A4.0012,4.0012,0,1,1,63,48.4536,3.9962,3.9962,0,1,1,61,41ZM43,42h2a1,1,0,0,1,0,2H43a1,1,0,0,1,0-2Z" style="fill:#202021"/><rect x="26" y="70" width="38" height="8" rx="1" ry="1" style="fill:#202021"/><path d="M36,11.5a3.5,3.5,0,0,0-7,0V19h7Z" style="fill:#202021"/><path d="M54,13.5a3.5,3.5,0,0,0-7,0V19h7Z" style="fill:#202021"/><path d="M63,17.5a3.5,3.5,0,0,0-7,0V19h7Z" style="fill:#202021"/><path d="M45,5.5a3.5,3.5,0,0,0-7,0V19h7Z" style="fill:#202021"/><path d="M29,85a1.0029,1.0029,0,0,0,1,1H60a1.0029,1.0029,0,0,0,1-1V80H29Z" style="fill:#202021"/></g></svg>