<?xml version="1.0" encoding="utf-8"?>
<!-- Generator: Adobe Illustrator 22.0.1, SVG Export Plug-In . SVG Version: 6.00 Build 0)  -->
<svg version="1.1" xmlns="http://www.w3.org/2000/svg" xmlns:xlink="http://www.w3.org/1999/xlink" x="0px" y="0px"
	 viewBox="0 0 512 512" style="enable-background:new 0 0 512 512;" xml:space="preserve">
<style type="text/css">
	.st0{fill:#9AC6D1;}
	.st1{fill:#A58BFA;}
	.st2{fill:#A5E1FD;}
	.st3{fill:#E799EA;}
	.st4{fill:#E194AD;}
	.st5{fill:#D0FCC4;}
	.st6{fill:#EEC0C5;}
	.st7{fill:#A7D4F1;}
	.st8{fill:#78B8EA;}
	.st9{fill:#A198FB;}
	.st10{fill:#ECBFFB;}
	.st11{fill:#EFC7DA;}
	.st12{fill:#85B4FB;}
	.st13{fill:#EDFFAA;}
	.st14{fill:#C9A8FB;}
	.st15{fill:#E9A8A8;}
	.st16{fill:#88ADB7;}
	.st17{fill:#C4F8D6;}
	.st18{fill:#A35561;}
	.st19{fill:#C0E0DC;}
	.st20{fill:#D3FAF7;}
	.st21{fill:#D9B583;}
	.st22{fill:#F0C98D;}
	.st23{fill:#C3A27A;}
	.st24{fill:#B35E6D;}
	.st25{fill:#C56673;}
	.st26{fill:#F0DABA;}
	.st27{fill:#E7B673;}
	.st28{fill:#FBFBFB;}
	.st29{fill:#F3D5E2;}
	.st30{fill:#FFFFFF;}
	.st31{fill:#E0DEDE;}
	.st32{fill:#F1D7DF;}
	.st33{fill:#EED5E0;}
	.st34{fill:#C34261;}
	.st35{fill:#AF3952;}
	.st36{fill:#B33C56;}
	.st37{fill:#C63C52;}
	.st38{fill:#E1D7F7;}
	.st39{fill:#904F5D;}
	.st40{fill:#C47287;}
	.st41{fill:#B76274;}
	.st42{fill:#FFFFCF;}
	.st43{fill:#E3E2BC;}
	.st44{fill:#BBA1E9;}
	.st45{fill:#DCB886;}
	.st46{fill:#D5D4D4;}
	.st47{fill:#F5FFE1;}
	.st48{fill:#D2D6C8;}
	.st49{fill:#C1C4BB;}
	.st50{fill:#AE5C6A;}
	.st51{fill:#B05F72;}
	.st52{fill:#D2687C;}
	.st53{fill:#D1D6C5;}
	.st54{fill:#B64867;}
	.st55{fill:#CA4A68;}
	.st56{fill:#DC7486;}
	.st57{fill:#B69CE4;}
	.st58{fill:#544A30;}
	.st59{fill:#443D24;}
	.st60{fill:#DDC5AF;}
	.st61{fill:#F4D9BF;}
	.st62{fill:#D5CFF8;}
	.st63{fill:#D1DE96;}
	.st64{fill:#36301E;}
	.st65{fill:#D0D4C6;}
	.st66{fill:#F3FFDF;}
	.st67{fill:#C7A6F9;}
	.st68{fill:#B49AE2;}
	.st69{fill:#E6C2A3;}
	.st70{fill:#B56170;}
	.st71{fill:#915465;}
	.st72{fill:#A15969;}
	.st73{fill:#F4D944;}
	.st74{fill:#ECCBAE;}
	.st75{fill:#F5DBC1;}
	.st76{fill:#6EA9CD;}
	.st77{fill:#6FABCF;}
	.st78{fill:#90CAEA;}
	.st79{fill:#F3E7A8;}
	.st80{fill:#CACACA;}
	.st81{fill:#96651F;}
	.st82{fill:#A7711F;}
	.st83{fill:#B33A54;}
	.st84{fill:#BA8022;}
	.st85{fill:#BC7D25;}
	.st86{fill:#CC8A27;}
	.st87{fill:#DFAA58;}
	.st88{fill:#D99E3C;}
	.st89{fill:#C48B37;}
	.st90{fill:#E5A9BF;}
	.st91{fill:#E7B7C6;}
	.st92{fill:#C16B7F;}
	.st93{fill:#D67484;}
	.st94{fill:#AF667B;}
	.st95{fill:#BE6A7D;}
	.st96{fill:#D9B1B8;}
	.st97{fill:#B2939C;}
	.st98{fill:#C5A2AB;}
	.st99{fill:#C3B3DE;}
	.st100{fill:#D9C3F9;}
	.st101{fill:#DDAB8A;}
	.st102{fill:#DFC5AF;}
	.st103{fill:#CA9B81;}
	.st104{fill:#383220;}
	.st105{fill:#BEF2F8;}
	.st106{fill:#E8A327;}
	.st107{fill:#CEF1F8;}
	.st108{fill:#E299A6;}
	.st109{fill:#E6AFB9;}
	.st110{fill:#E2C8D4;}
	.st111{fill:#EBC8D8;}
	.st112{fill:#E299BD;}
	.st113{fill:#DEDEDE;}
	.st114{fill:#EAB9CF;}
	.st115{fill:none;stroke:#908E8F;stroke-width:8;stroke-linecap:round;stroke-miterlimit:10;}
	.st116{fill:#CC8DB1;}
	.st117{fill:#DBDBDB;}
	.st118{fill:#C7C7C7;}
	.st119{fill:#9FCD65;}
	.st120{fill:#98334C;}
	.st121{fill:#A7A6A6;}
	.st122{fill:#B9B9B9;}
	.st123{fill:#A2A2A2;}
	.st124{fill:#9C5667;}
	.st125{fill:#AE5D6C;}
	.st126{fill:#C36673;}
	.st127{fill:#7B7A7A;}
	.st128{fill:#C2BAB7;}
	.st129{fill:#AFE0EE;}
	.st130{fill:#E7B776;}
	.st131{fill:#564A2F;}
	.st132{fill:#615533;}
	.st133{fill:#9D7E75;}
	.st134{fill:#B3A5A2;}
	.st135{fill:#D8D7D7;}
	.st136{fill:#4C4429;}
	.st137{fill:#3D3622;}
	.st138{fill:#DBC3AD;}
	.st139{fill:#F2D7BD;}
	.st140{fill:#CED2C4;}
	.st141{fill:#F2FFDD;}
	.st142{fill:#C5A4F7;}
	.st143{fill:#B298E0;}
	.st144{fill:#9C5360;}
	.st145{fill:#D28492;}
	.st146{fill:#DEC340;}
	.st147{fill:#C3AB3A;}
	.st148{fill:#DABF3D;}
	.st149{fill:#B09C36;}
	.st150{fill:#CE87D5;}
	.st151{fill:#F1E081;}
	.st152{fill:#DFB67D;}
	.st153{fill:#C1AA3A;}
	.st154{fill:#D5BB3C;}
	.st155{fill:#DCDCDC;}
	.st156{fill:#D9C1AB;}
	.st157{fill:#F0D5BB;}
	.st158{fill:#CCD0C2;}
	.st159{fill:#F0FFDB;}
	.st160{fill:#C3A1F5;}
	.st161{fill:#B096DE;}
	.st162{fill:#C16673;}
	.st163{fill:#9A5360;}
	.st164{fill:#8E7852;}
	.st165{fill:#AA3952;}
	.st166{fill:#CF7488;}
	.st167{fill:#DFBB88;}
	.st168{fill:#9F8557;}
	.st169{fill:#D4B282;}
	.st170{fill:#EED2AB;}
	.st171{fill:#F2E4BF;}
	.st172{fill:#ACCEDB;}
	.st173{fill:#BCE0F2;}
	.st174{fill:#9CC7DD;}
	.st175{fill:#D4AF80;}
	.st176{fill:#A0A0A0;}
	.st177{fill:#878787;}
	.st178{fill:#D9D9D9;}
	.st179{fill:#C5C5C5;}
	.st180{fill:#9DCB65;}
	.st181{fill:#AD3952;}
	.st182{fill:#C43C52;}
	.st183{fill:#96334C;}
	.st184{fill:#A5A4A4;}
	.st185{fill:#B7B7B7;}
	.st186{fill:#9A5667;}
	.st187{fill:#AC5D6C;}
	.st188{fill:#DADADA;}
	.st189{fill:#D7BFA9;}
	.st190{fill:#EED3B9;}
	.st191{fill:#CACEC0;}
	.st192{fill:#EEFFD9;}
	.st193{fill:#C19FF3;}
	.st194{fill:#AE94DC;}
	.st195{fill:#BF6673;}
	.st196{fill:#985360;}
	.st197{fill:#86AAB2;}
	.st198{fill:#98C4CF;}
	.st199{fill:#80A2A7;}
	.st200{fill:#66989B;}
	.st201{fill:#72A8B2;}
	.st202{fill:#C7A172;}
	.st203{fill:#7EBABE;}
	.st204{fill:#99C4C9;}
	.st205{fill:#A391DE;}
	.st206{fill:#BBA1FB;}
	.st207{fill:#867FB6;}
	.st208{fill:#9387C7;}
	.st209{fill:#F0C9F6;}
	.st210{fill:#E5ACF0;}
	.st211{fill:#D3A2DF;}
	.st212{fill:#A49CD9;}
	.st213{fill:#C5B7F6;}
	.st214{fill:#D1D1D1;}
	.st215{fill:#C7859F;}
	.st216{fill:#E8B878;}
	.st217{fill:#EED5B1;}
	.st218{fill:#BA8020;}
	.st219{fill:#E8B95F;}
	.st220{fill:#B56376;}
	.st221{fill:#DABF3F;}
	.st222{fill:#F8F8F8;}
	.st223{fill:#DFBCE6;}
	.st224{fill:#C3A56D;}
	.st225{fill:#AE9466;}
	.st226{fill:#D5889A;}
	.st227{fill:#C1A27B;}
	.st228{fill:#ECCDD3;}
	.st229{fill:#D38ADA;}
	.st230{fill:#B3606F;}
	.st231{fill:#A15A6B;}
	.st232{fill:#DAB785;}
	.st233{fill:#E5A85B;}
	.st234{fill:#CC88A2;}
	.st235{fill:#D5D4D5;}
	.st236{fill:#B05F6D;}
	.st237{fill:#F2D744;}
	.st238{fill:#77B6E8;}
	.st239{fill:#6FA9CD;}
	.st240{fill:#8EC8E8;}
	.st241{fill:#F1E5A6;}
	.st242{fill:#A13856;}
	.st243{fill:#8E3251;}
	.st244{fill:#6BA3BE;}
	.st245{fill:#D9BD39;}
	.st246{fill:#D7BD3D;}
	.st247{fill:#ADD6E0;}
	.st248{fill:#CCEAF2;}
	.st249{fill:#EAC3D2;}
	.st250{fill:#736144;}
	.st251{fill:#D4D3D2;}
	.st252{fill:#89754F;}
	.st253{fill:#B05D6C;}
	.st254{fill:#F1E3F7;}
	.st255{fill:#817E7D;}
	.st256{fill:#DBD2D0;}
	.st257{fill:#DF92AB;}
	.st258{fill:#D28995;}
	.st259{fill:#D5BB3D;}
	.st260{fill:#D4D4D4;}
	.st261{fill:#D49125;}
	.st262{fill:#D58A97;}
	.st263{fill:#669699;}
	.st264{fill:#72A6B0;}
	.st265{fill:#3B5967;}
	.st266{fill:#BEE6FD;}
	.st267{fill:#B36376;}
	.st268{fill:#D08290;}
	.st269{fill:#D8BD3F;}
	.st270{fill:#F1D3E0;}
	.st271{fill:#F6F6F6;}
	.st272{fill:#D6A3AD;}
	.st273{fill:#94BD61;}
	.st274{fill:#CC8BA4;}
	.st275{fill:#DD90A9;}
	.st276{fill:#D5BDA7;}
	.st277{fill:#ECD1B7;}
	.st278{fill:#C8CCBE;}
	.st279{fill:#EDFFD7;}
	.st280{fill:#BF9DF1;}
	.st281{fill:#AC92DA;}
	.st282{fill:#BD6673;}
	.st283{fill:#D8D8D8;}
	.st284{fill:#85A8B0;}
	.st285{fill:#96C2CD;}
	.st286{fill:#EEC78B;}
	.st287{fill:#D7D7D7;}
	.st288{fill:#C3C3C3;}
	.st289{fill:#A3A2A2;}
	.st290{fill:#B5B5B5;}
	.st291{fill:#9E9E9E;}
	.st292{fill:#985667;}
	.st293{fill:#AA5D6C;}
	.st294{fill:#E4C0A1;}
	.st295{fill:#EAC9AC;}
	.st296{fill:#6EA7CB;}
	.st297{fill:#F9F9F9;}
	.st298{fill:#ECD3DE;}
	.st299{fill:#C7F6F8;}
	.st300{fill:#DEF4F8;}
	.st301{fill:#ADA7A6;}
	.st302{fill:#E0E0E0;}
	.st303{fill:#736F6D;}
	.st304{fill:#DBB684;}
	.st305{fill:#D395A0;}
	.st306{fill:#36515B;}
	.st307{fill:#62605E;}
	.st308{fill:#2C4046;}
	.st309{fill:#BFC2B9;}
	.st310{fill:#7FA0A5;}
	.st311{fill:#87ABB5;}
	.st312{fill:#DDB47D;}
	.st313{fill:#C59F72;}
	.st314{fill:#7DB8BC;}
	.st315{fill:#97C2C7;}
	.st316{fill:#9A835C;}
	.st317{fill:#AB9162;}
	.st318{fill:#B59A6A;}
	.st319{fill:#D1D0CF;}
	.st320{fill:#E0CEDD;}
	.st321{fill:#5C3D11;}
	.st322{fill:#704B12;}
	.st323{fill:#E1A3FB;}
	.st324{fill:#B09565;}
	.st325{fill:#70AACD;}
	.st326{fill:#D9D8D7;}
	.st327{fill:#DFC7B1;}
	.st328{fill:#90B7BE;}
	.st329{fill:#9E5667;}
	.st330{fill:#E7FB90;}
	.st331{fill:#D7D1FA;}
	.st332{fill:#87ACB4;}
	.st333{fill:#D4AF90;}
	.st334{fill:#D8B280;}
	.st335{fill:#8C4B57;}
	.st336{fill:#CCCCCC;}
	.st337{fill:#B25F6D;}
	.st338{fill:#F4D4B3;}
	.st339{fill:#FCE5C8;}
	.st340{fill:#5A8384;}
	.st341{fill:#CE8AA2;}
	.st342{fill:#D6D6D6;}
	.st343{fill:#D8BAC6;}
	.st344{fill:#DBB482;}
</style>
<g id="BULINE">
	<circle id="XMLID_1346_" class="st8" cx="256" cy="256" r="256"/>
</g>
<g id="Icons">
	<g id="XMLID_1347_">
		<g id="XMLID_1412_">
			<path id="XMLID_1413_" class="st50" d="M87.5,324.5c-2,0-11.1-1.3-31.6-21.2l1.4-1.4c22,21.4,30.2,20.7,30.3,20.7l0.3,2
				C87.9,324.5,87.7,324.5,87.5,324.5z"/>
		</g>
		<g id="XMLID_1410_">
			<path id="XMLID_1411_" class="st50" d="M84.6,364.4l-1.1-1.7c15.7-10.3,5.7-31.2,5.6-31.4l1.8-0.9
				C91,330.7,101.8,353.1,84.6,364.4z"/>
		</g>
		<g id="XMLID_1408_">
			<path id="XMLID_1409_" class="st50" d="M52.5,338.7l-1-1.7c0.8-0.5,19-11.4,32.8-7l-0.6,1.9C70.8,327.8,52.7,338.6,52.5,338.7z"
				/>
		</g>
		<path id="XMLID_1407_" class="st25" d="M45.4,213.4l-0.3,1.5l-1.5-0.3c-8.5-1.6-16.6,4-18.2,12.5L25,229
			c-1.6,8.5,4,16.6,12.5,18.2l1.5,0.3l32.6,6.1l6.1-32.6l0.3-1.5c1.6-8.5-4-16.6-12.5-18.2l-1.9-0.4C55.1,199.3,47,204.9,45.4,213.4
			z"/>
		<path id="XMLID_1406_" class="st25" d="M125.9,141.5l-1.6,1.9l-1.9-1.6c-10.3-9.1-26-8.1-35.1,2.2l-2,2.3
			c-9.1,10.3-8.1,26,2.2,35.1l1.9,1.6l39.6,35l35-39.6l1.6-1.9c9.1-10.3,8.1-26-2.2-35.1l-2.3-2C150.7,130.2,135,131.2,125.9,141.5z
			"/>
		<path id="XMLID_1405_" class="st25" d="M221.1,106.7l-1.5,0.7l-0.7-1.5c-4-8.1-13.9-11.3-21.9-7.3l-1.8,0.9
			c-8.1,4-11.3,13.9-7.3,21.9l0.7,1.5l15.6,31l31-15.6l1.5-0.7c8.1-4,11.3-13.9,7.3-21.9L243,114C239,105.9,229.2,102.7,221.1,106.7
			z"/>
		<g id="XMLID_1377_">
			<path id="XMLID_1404_" class="st128" d="M478.2,270.7c-5.1-12.1-15.3-21.4-27.9-25.4c-4.2-1.3-8.7-2-13.4-2h-45.1l-31.9-70.8
				c-2.3-5.1-7.3-8.3-12.9-8.3H199.5c-5.6,0-10.6,3.3-12.9,8.3l-31.9,70.8h-44.2c-9,0-16.4,7.3-16.4,16.4v71.2h387.6v-42.7
				C481.7,282,480.4,276.1,478.2,270.7z"/>
			<path id="XMLID_1403_" class="st129" d="M371,243.6H175.4l0.1-0.3l14.5-32.1l11.7-26c1.9-4.2,6-6.9,10.6-6.9H334
				c2.5,0,4.9,0.8,6.9,2.2c1.6,1.2,2.9,2.7,3.8,4.6l2.3,5l5.6,12.3L371,243.6z"/>
			<path id="XMLID_1402_" class="st22" d="M488.2,327c0,3-1.2,5.7-3.2,7.7c-2,2-4.7,3.2-7.7,3.2h-62.7c-6,0-10.8-4.8-10.8-10.8
				c0-3,1.2-5.7,3.2-7.7c2-2,4.7-3.2,7.7-3.2h62.7C483.4,316.2,488.2,321,488.2,327z"/>
			<path id="XMLID_1401_" class="st130" d="M458.5,327c0,3-1.2,5.7-3.2,7.7c-2,2-4.7,3.2-7.7,3.2h-33c-6,0-10.8-4.8-10.8-10.8
				c0-3,1.2-5.7,3.2-7.7c2-2,4.7-3.2,7.7-3.2h33C453.7,316.2,458.5,321,458.5,327z"/>
			<path id="XMLID_1400_" class="st130" d="M163.3,327c0,3-1.2,5.7-3.2,7.7c-2,2-4.7,3.2-7.7,3.2H89.8c-6,0-10.8-4.8-10.8-10.8
				c0-3,1.2-5.7,3.2-7.7c2-2,4.7-3.2,7.7-3.2h62.7C158.5,316.2,163.3,321,163.3,327z"/>
			<path id="XMLID_1399_" class="st22" d="M163.3,327c0,3-1.2,5.7-3.2,7.7c-2,2-4.7,3.2-7.7,3.2h-47.8c-6,0-10.8-4.8-10.8-10.8
				c0-3,1.2-5.7,3.2-7.7c2-2,4.7-3.2,7.7-3.2h47.8C158.5,316.2,163.3,321,163.3,327z"/>
			<path id="XMLID_1398_" class="st22" d="M117,243.3v12.3c0,8.4-6.8,15.1-15.1,15.1h-7.7v-11c0-9.1,7.3-16.4,16.4-16.4H117z"/>
			<path id="XMLID_1397_" class="st22" d="M478.2,270.7h-12.8c-8.4,0-15.1-6.8-15.1-15.1v-10.2C462.9,249.3,473.1,258.6,478.2,270.7
				z"/>
			<rect id="XMLID_1396_" x="263.7" y="175.4" class="st128" width="15.7" height="78.7"/>
			<path id="XMLID_1395_" class="st64" d="M209.7,327c0,21.5-16.1,39.2-36.8,41.8c-1.8,0.2-3.5,0.3-5.3,0.3
				c-23.3,0-42.2-18.9-42.2-42.2s18.9-42.2,42.2-42.2c1.8,0,3.6,0.1,5.3,0.3C193.6,287.8,209.7,305.5,209.7,327z"/>
			<path id="XMLID_1394_" class="st59" d="M209.7,327c0,21.5-16.1,39.2-36.8,41.8c-20.8-2.6-36.8-20.3-36.8-41.8
				s16.1-39.2,36.8-41.8C193.6,287.8,209.7,305.5,209.7,327z"/>
			<path id="XMLID_1393_" class="st131" d="M187.1,327c0,8.8-6.4,16.1-14.8,17.6c-1,0.2-2,0.3-3.1,0.3c-9.8,0-17.8-8-17.8-17.8
				c0-9.8,8-17.8,17.8-17.8c1.1,0,2.1,0.1,3.1,0.3C180.7,310.9,187.1,318.2,187.1,327z"/>
			<path id="XMLID_1392_" class="st132" d="M187.1,327c0,8.8-6.4,16.1-14.8,17.6c-8.4-1.5-14.7-8.8-14.7-17.6
				c0-8.8,6.4-16.1,14.7-17.6C180.7,310.9,187.1,318.2,187.1,327z"/>
			<path id="XMLID_1391_" class="st64" d="M438.9,327c0,21.5-16.1,39.2-36.8,41.8c-1.8,0.2-3.5,0.3-5.3,0.3
				c-23.3,0-42.2-18.9-42.2-42.2s18.9-42.2,42.2-42.2c1.8,0,3.6,0.1,5.3,0.3C422.9,287.8,438.9,305.5,438.9,327z"/>
			<path id="XMLID_1390_" class="st59" d="M438.9,327c0,21.5-16.1,39.2-36.8,41.8c-20.8-2.6-36.8-20.3-36.8-41.8
				s16.1-39.2,36.8-41.8C422.9,287.8,438.9,305.5,438.9,327z"/>
			<path id="XMLID_1389_" class="st131" d="M416.4,327c0,8.8-6.4,16.1-14.8,17.6c-1,0.2-2,0.3-3.1,0.3c-9.8,0-17.8-8-17.8-17.8
				c0-9.8,8-17.8,17.8-17.8c1.1,0,2.1,0.1,3.1,0.3C410,310.9,416.4,318.2,416.4,327z"/>
			<path id="XMLID_1388_" class="st132" d="M416.4,327c0,8.8-6.4,16.1-14.8,17.6c-8.4-1.5-14.7-8.8-14.7-17.6
				c0-8.8,6.4-16.1,14.7-17.6C410,310.9,416.4,318.2,416.4,327z"/>
			<path id="XMLID_1387_" class="st133" d="M300.5,243.3h-21.1v-32.4h0c11.6,0,21.1,9.4,21.1,21.1V243.3z"/>
			<path id="XMLID_1386_" class="st133" d="M204.3,228v15.3h-28.8l14.5-32.1C198.1,212.5,204.3,219.5,204.3,228z"/>
			<polygon id="XMLID_1385_" class="st30" points="254.8,178.3 219.8,243.6 200.2,243.6 235.3,178.3 			"/>
			<polygon id="XMLID_1384_" class="st30" points="278.2,178.3 243.2,243.6 231,243.6 266.1,178.3 			"/>
			<path id="XMLID_1383_" class="st30" d="M340.9,180.5l-33.8,63h-19.6l35-65.3H334C336.6,178.3,338.9,179.1,340.9,180.5z"/>
			<polygon id="XMLID_1382_" class="st30" points="352.5,202.5 330.5,243.6 318.3,243.6 346.9,190.2 			"/>
			<path id="XMLID_1381_" class="st134" d="M154.7,243.3v33c0,0,61.7-10.8,61.7,54.6h47.3v-87.3L154.7,243.3z"/>
			<path id="XMLID_1380_" class="st134" d="M279.5,243.3v87.6h67.7c0,0-4.5-53,37-53L371,243.6L279.5,243.3z"/>
			<path id="XMLID_1379_" class="st130" d="M194,258h-14.6c-2.2,0-3.9-1.7-3.9-3.9v0c0-2.2,1.7-3.9,3.9-3.9H194
				c2.2,0,3.9,1.7,3.9,3.9v0C197.9,256.3,196.2,258,194,258z"/>
			<path id="XMLID_1378_" class="st130" d="M301.9,258h-14.6c-2.2,0-3.9-1.7-3.9-3.9v0c0-2.2,1.7-3.9,3.9-3.9h14.6
				c2.2,0,3.9,1.7,3.9,3.9v0C305.8,256.3,304.1,258,301.9,258z"/>
		</g>
		<g id="XMLID_1374_">
			<path id="XMLID_1376_" class="st50" d="M58.3,352.2L38,362.7c-3.4,1.8-7.6,0.8-9.9-2l0,0c-0.3-0.4-0.7-0.9-0.9-1.4l-5.9-11.4
				c-2-4-0.5-8.8,3.5-10.9L45,326.4c4-2,8.8-0.5,10.9,3.5l2.7,5.3l3.2,6.1C63.8,345.3,62.2,350.2,58.3,352.2z"/>
			<path id="XMLID_1375_" class="st25" d="M58.3,352.2L38,362.7c-3.4,1.8-7.6,0.8-9.9-2l0,0l-3.2-6.1c-2-4-0.5-8.8,3.5-10.9
				l20.3-10.5c3.4-1.8,7.6-0.8,9.9,2l3.2,6.1C63.8,345.3,62.2,350.2,58.3,352.2z"/>
		</g>
		<g id="XMLID_1371_">
			<path id="XMLID_1373_" class="st135" d="M67.5,299.6l-1.3,2.3l-5,8.8c-2.2,3.9-7.1,5.2-11,3l-19.8-11.3c-2.9-1.7-4.4-4.9-4-8
				c0.1-1,0.5-2.1,1-3l6.4-11.2c2.2-3.9,7.1-5.2,11-3l19.8,11.3C68.3,290.7,69.7,295.7,67.5,299.6z"/>
			<path id="XMLID_1372_" class="st30" d="M66.1,301.9l-5,8.8c-2.2,3.9-7.1,5.2-11,3l-19.8-11.3c-2.9-1.7-4.4-4.9-4-8l5-8.8
				c2.2-3.9,7.2-5.2,11-3l19.8,11.4C65.1,295.5,66.5,298.7,66.1,301.9z"/>
		</g>
		<g id="XMLID_1368_">
			<path id="XMLID_1370_" class="st135" d="M82.3,355.3l1.9,1.9l7.2,7.3c3.2,3.2,3.2,8.4,0,11.5l-16.4,16.3c-2.4,2.4-5.9,3-8.9,1.7
				c-1-0.4-1.9-1-2.7-1.8l-9.1-9.2c-3.2-3.2-3.2-8.4,0-11.5l16.4-16.3C74,352,79.2,352.1,82.3,355.3z"/>
			<path id="XMLID_1369_" class="st30" d="M84.2,357.2l7.2,7.3c3.2,3.2,3.2,8.4,0,11.5l-16.4,16.3c-2.4,2.4-5.9,3-8.9,1.7l-7.2-7.3
				c-3.2-3.2-3.2-8.4,0-11.5l16.4-16.3C77.8,356.5,81.3,355.9,84.2,357.2z"/>
		</g>
		<g id="XMLID_1363_">
			<path id="XMLID_1367_" class="st32" d="M373.5,270.7c0,2.7,0.9,5.5-0.1,7.8c-1,2.4-3.7,3.8-5.5,5.6c-1.8,1.8-3.2,4.5-5.6,5.5
				c-0.2,0.1-0.5,0.2-0.7,0.2c-1.5,0.4-3.1,0.2-4.7,0c-0.8-0.1-1.6-0.2-2.4-0.2c-0.8,0-1.6,0.1-2.3,0.2c-1.9,0.2-3.8,0.5-5.5-0.2
				c-2.4-1-3.8-3.7-5.6-5.5c-1.8-1.8-4.5-3.2-5.5-5.6c-1-2.3-0.1-5.1-0.1-7.8c0-2.7-0.9-5.5,0.1-7.8c1-2.4,3.7-3.8,5.5-5.6
				c1.8-1.8,3.2-4.5,5.6-5.5c1.6-0.7,3.5-0.4,5.5-0.2c0.8,0.1,1.6,0.2,2.3,0.2c0.8,0,1.6-0.1,2.4-0.2c1.6-0.2,3.3-0.4,4.7,0
				c0.2,0.1,0.5,0.1,0.7,0.2c2.4,1,3.8,3.7,5.6,5.5c1.8,1.8,4.5,3.2,5.5,5.6C374.4,265.2,373.5,268.1,373.5,270.7z"/>
			<path id="XMLID_1366_" class="st30" d="M373.5,270.7c0,2.7,0.9,5.5-0.1,7.8c-1,2.4-3.7,3.8-5.5,5.6c-1.8,1.8-3.2,4.5-5.6,5.5
				c-0.2,0.1-0.5,0.2-0.7,0.2c-0.8-0.1-1.6-0.2-2.3-0.2c-0.8,0-1.6,0.1-2.4,0.2c-1.6,0.2-3.3,0.4-4.7,0c-0.2-0.1-0.5-0.1-0.7-0.2
				c-2.4-1-3.8-3.7-5.6-5.5c-1.8-1.8-4.5-3.2-5.5-5.6c-1-2.3-0.1-5.1-0.1-7.8c0-2.7-0.9-5.5,0.1-7.8c1-2.4,3.7-3.8,5.5-5.6
				c1.8-1.8,3.2-4.5,5.6-5.5c0.2-0.1,0.5-0.2,0.7-0.2c1.5-0.4,3.1-0.2,4.7,0c0.8,0.1,1.6,0.2,2.4,0.2c0.8,0,1.6-0.1,2.3-0.2
				c0.2,0.1,0.5,0.1,0.7,0.2c2.4,1,3.8,3.7,5.6,5.5c1.8,1.8,4.5,3.2,5.5,5.6C374.4,265.2,373.5,268.1,373.5,270.7z"/>
			<path id="XMLID_1365_" class="st90" d="M363.1,270.7c0,4.1-2.9,7.5-6.7,8.3c-0.6,0.1-1.2,0.2-1.8,0.2c-4.7,0-8.5-3.8-8.5-8.5
				s3.8-8.5,8.5-8.5c0.6,0,1.2,0.1,1.8,0.2C360.2,263.2,363.1,266.6,363.1,270.7z"/>
			<ellipse id="XMLID_1364_" class="st91" cx="356.4" cy="270.7" rx="6.7" ry="8.3"/>
		</g>
		<g id="XMLID_1358_">
			<path id="XMLID_1362_" class="st32" d="M337.5,301.8c0,2.3,0.8,4.7-0.1,6.6c-0.8,2-3.1,3.2-4.6,4.7c-1.5,1.5-2.7,3.8-4.7,4.6
				c-0.2,0.1-0.4,0.1-0.6,0.2c-1.2,0.3-2.6,0.2-4,0c-0.7-0.1-1.4-0.1-2-0.1c-0.7,0-1.3,0.1-2,0.1c-1.6,0.2-3.2,0.4-4.6-0.2
				c-2-0.8-3.2-3.1-4.7-4.6c-1.5-1.5-3.8-2.7-4.6-4.7c-0.8-2-0.1-4.4-0.1-6.6s-0.8-4.7,0.1-6.6c0.8-2,3.1-3.2,4.6-4.7
				c1.5-1.5,2.7-3.8,4.7-4.6c1.4-0.6,3-0.4,4.6-0.2c0.7,0.1,1.3,0.1,2,0.1c0.7,0,1.3-0.1,2-0.1c1.4-0.1,2.8-0.3,4,0
				c0.2,0.1,0.4,0.1,0.6,0.2c2,0.8,3.2,3.1,4.7,4.6c1.5,1.5,3.8,2.7,4.6,4.7C338.2,297.1,337.5,299.5,337.5,301.8z"/>
			<path id="XMLID_1361_" class="st30" d="M337.5,301.8c0,2.3,0.8,4.7-0.1,6.6c-0.8,2-3.1,3.2-4.6,4.7c-1.5,1.5-2.7,3.8-4.7,4.6
				c-0.2,0.1-0.4,0.1-0.6,0.2c-0.7-0.1-1.3-0.1-2-0.1c-0.7,0-1.3,0.1-2,0.1c-1.4,0.1-2.8,0.3-4,0c-0.2-0.1-0.4-0.1-0.6-0.2
				c-2-0.8-3.2-3.1-4.7-4.6c-1.5-1.5-3.8-2.7-4.6-4.7c-0.8-2-0.1-4.4-0.1-6.6s-0.8-4.7,0.1-6.6c0.8-2,3.1-3.2,4.6-4.7
				c1.5-1.5,2.7-3.8,4.7-4.6c0.2-0.1,0.4-0.1,0.6-0.2c1.2-0.3,2.6-0.2,4,0c0.7,0.1,1.4,0.1,2,0.1c0.7,0,1.3-0.1,2-0.1
				c0.2,0.1,0.4,0.1,0.6,0.2c2,0.8,3.2,3.1,4.7,4.6c1.5,1.5,3.8,2.7,4.6,4.7C338.2,297.1,337.5,299.5,337.5,301.8z"/>
			<path id="XMLID_1360_" class="st90" d="M328.6,301.8c0,3.5-2.5,6.4-5.7,7.1c-0.5,0.1-1,0.2-1.5,0.2c-4,0-7.2-3.2-7.2-7.2
				c0-4,3.2-7.2,7.2-7.2c0.5,0,1,0.1,1.5,0.2C326.2,295.4,328.6,298.3,328.6,301.8z"/>
			<ellipse id="XMLID_1359_" class="st91" cx="322.9" cy="301.8" rx="5.7" ry="7.1"/>
		</g>
		<g id="XMLID_1353_">
			<path id="XMLID_1357_" class="st32" d="M254.5,363.6c0,2.3,0.8,4.7-0.1,6.6c-0.8,2-3.1,3.2-4.6,4.7c-1.5,1.5-2.7,3.8-4.7,4.6
				c-0.2,0.1-0.4,0.1-0.6,0.2c-1.2,0.3-2.6,0.2-4,0c-0.7-0.1-1.4-0.1-2-0.1c-0.7,0-1.3,0.1-2,0.1c-1.6,0.2-3.2,0.4-4.6-0.2
				c-2-0.8-3.2-3.1-4.7-4.6c-1.5-1.5-3.8-2.7-4.6-4.7c-0.8-2-0.1-4.4-0.1-6.6s-0.8-4.7,0.1-6.6c0.8-2,3.1-3.2,4.6-4.7
				c1.5-1.5,2.7-3.8,4.7-4.6c1.4-0.6,3-0.4,4.6-0.2c0.7,0.1,1.3,0.1,2,0.1c0.7,0,1.3-0.1,2-0.1c1.4-0.1,2.8-0.3,4,0
				c0.2,0.1,0.4,0.1,0.6,0.2c2,0.8,3.2,3.1,4.7,4.6c1.5,1.5,3.8,2.7,4.6,4.7C255.3,358.9,254.5,361.3,254.5,363.6z"/>
			<path id="XMLID_1356_" class="st30" d="M254.5,363.6c0,2.3,0.8,4.7-0.1,6.6c-0.8,2-3.1,3.2-4.6,4.7c-1.5,1.5-2.7,3.8-4.7,4.6
				c-0.2,0.1-0.4,0.1-0.6,0.2c-0.7-0.1-1.3-0.1-2-0.1c-0.7,0-1.3,0.1-2,0.1c-1.4,0.1-2.8,0.3-4,0c-0.2-0.1-0.4-0.1-0.6-0.2
				c-2-0.8-3.2-3.1-4.7-4.6c-1.5-1.5-3.8-2.7-4.6-4.7c-0.8-2-0.1-4.4-0.1-6.6s-0.8-4.7,0.1-6.6c0.8-2,3.1-3.2,4.6-4.7
				c1.5-1.5,2.7-3.8,4.7-4.6c0.2-0.1,0.4-0.1,0.6-0.2c1.2-0.3,2.6-0.2,4,0c0.7,0.1,1.4,0.1,2,0.1c0.7,0,1.3-0.1,2-0.1
				c0.2,0.1,0.4,0.1,0.6,0.2c2,0.8,3.2,3.1,4.7,4.6c1.5,1.5,3.8,2.7,4.6,4.7C255.3,358.9,254.5,361.3,254.5,363.6z"/>
			<path id="XMLID_1355_" class="st90" d="M245.7,363.6c0,3.5-2.5,6.4-5.7,7.1c-0.5,0.1-1,0.2-1.5,0.2c-4,0-7.2-3.2-7.2-7.2
				c0-4,3.2-7.2,7.2-7.2c0.5,0,1,0.1,1.5,0.2C243.2,357.2,245.7,360.1,245.7,363.6z"/>
			<ellipse id="XMLID_1354_" class="st91" cx="240" cy="363.6" rx="5.7" ry="7.1"/>
		</g>
		<g id="XMLID_1348_">
			<path id="XMLID_1352_" class="st32" d="M167.5,396.6c0,2.3,0.8,4.7-0.1,6.6c-0.8,2-3.1,3.2-4.6,4.7c-1.5,1.5-2.7,3.8-4.7,4.6
				c-0.2,0.1-0.4,0.1-0.6,0.2c-1.2,0.3-2.6,0.2-4,0c-0.7-0.1-1.4-0.1-2-0.1c-0.7,0-1.3,0.1-2,0.1c-1.6,0.2-3.2,0.4-4.6-0.2
				c-2-0.8-3.2-3.1-4.7-4.6c-1.5-1.5-3.8-2.7-4.6-4.7c-0.8-2-0.1-4.4-0.1-6.6s-0.8-4.7,0.1-6.6c0.8-2,3.1-3.2,4.6-4.7
				c1.5-1.5,2.7-3.8,4.7-4.6c1.4-0.6,3-0.4,4.6-0.2c0.7,0.1,1.3,0.1,2,0.1c0.7,0,1.3-0.1,2-0.1c1.4-0.1,2.8-0.3,4,0
				c0.2,0.1,0.4,0.1,0.6,0.2c2,0.8,3.2,3.1,4.7,4.6c1.5,1.5,3.8,2.7,4.6,4.7C168.3,392,167.5,394.4,167.5,396.6z"/>
			<path id="XMLID_1351_" class="st30" d="M167.5,396.6c0,2.3,0.8,4.7-0.1,6.6c-0.8,2-3.1,3.2-4.6,4.7c-1.5,1.5-2.7,3.8-4.7,4.6
				c-0.2,0.1-0.4,0.1-0.6,0.2c-0.7-0.1-1.3-0.1-2-0.1c-0.7,0-1.3,0.1-2,0.1c-1.4,0.1-2.8,0.3-4,0c-0.2-0.1-0.4-0.1-0.6-0.2
				c-2-0.8-3.2-3.1-4.7-4.6c-1.5-1.5-3.8-2.7-4.6-4.7c-0.8-2-0.1-4.4-0.1-6.6s-0.8-4.7,0.1-6.6c0.8-2,3.1-3.2,4.6-4.7
				c1.5-1.5,2.7-3.8,4.7-4.6c0.2-0.1,0.4-0.1,0.6-0.2c1.2-0.3,2.6-0.2,4,0c0.7,0.1,1.4,0.1,2,0.1c0.7,0,1.3-0.1,2-0.1
				c0.2,0.1,0.4,0.1,0.6,0.2c2,0.8,3.2,3.1,4.7,4.6c1.5,1.5,3.8,2.7,4.6,4.7C168.3,392,167.5,394.4,167.5,396.6z"/>
			<path id="XMLID_1350_" class="st90" d="M158.7,396.6c0,3.5-2.5,6.4-5.7,7.1c-0.5,0.1-1,0.2-1.5,0.2c-4,0-7.2-3.2-7.2-7.2
				c0-4,3.2-7.2,7.2-7.2c0.5,0,1,0.1,1.5,0.2C156.2,390.3,158.7,393.2,158.7,396.6z"/>
			<ellipse id="XMLID_1349_" class="st91" cx="153" cy="396.6" rx="5.7" ry="7.1"/>
		</g>
	</g>
</g>
</svg>
